<svg id="Слой_1" data-name="Слой 1" xmlns="http://www.w3.org/2000/svg" viewBox="0 0 80 80"><defs><style>.cls-1{fill:#d2fc51;}</style></defs><path class="cls-1" d="M40,3A37,37,0,1,1,3,40,37.042,37.042,0,0,1,40,3m0-3A40,40,0,1,0,80,40,40,40,0,0,0,40,0Z"/><path class="cls-1" d="M64.825,29.511l1.6-2.339-1.348-2.08a4.066,4.066,0,0,1-.286-.52,1.031,1.031,0,0,1-.1-.418.486.486,0,0,1,.183-.368.647.647,0,0,1,.447-.164.62.62,0,0,1,.471.178,4.664,4.664,0,0,1,.467.662L67.34,26.2l1.147-1.738.242-.376a1.958,1.958,0,0,1,.193-.259.633.633,0,0,1,.207-.154.652.652,0,0,1,.267-.051.624.624,0,0,1,.446.164.514.514,0,0,1,.174.388,1.8,1.8,0,0,1-.376.888l-1.411,2.11,1.518,2.339a4.013,4.013,0,0,1,.3.51.937.937,0,0,1,.093.383.62.62,0,0,1-.083.313.6.6,0,0,1-.235.224.692.692,0,0,1-.341.083.659.659,0,0,1-.347-.085.745.745,0,0,1-.23-.212c-.058-.085-.168-.249-.327-.494l-1.26-1.982-1.337,2.041c-.1.163-.179.277-.223.342a1.36,1.36,0,0,1-.158.19.707.707,0,0,1-.22.147.781.781,0,0,1-.3.053.615.615,0,0,1-.437-.161.6.6,0,0,1-.173-.468A1.673,1.673,0,0,1,64.825,29.511Z"/><path class="cls-1" d="M25.5,45.127a5.884,5.884,0,0,1-.937,3.268,6.221,6.221,0,0,1-2.741,2.269,10.27,10.27,0,0,1-4.279.82,9.626,9.626,0,0,1-4.895-1.121,6.507,6.507,0,0,1-2.221-2.153,4.888,4.888,0,0,1-.855-2.618A1.775,1.775,0,0,1,11.391,43.8a1.548,1.548,0,0,1,1.087.41,3.248,3.248,0,0,1,.758,1.217,8.086,8.086,0,0,0,.827,1.6,3.336,3.336,0,0,0,1.251,1.06,4.628,4.628,0,0,0,2.12.417,4.777,4.777,0,0,0,2.932-.841,2.529,2.529,0,0,0,1.128-2.1,2.221,2.221,0,0,0-.608-1.62,3.937,3.937,0,0,0-1.573-.95q-.963-.329-2.577-.7a18.907,18.907,0,0,1-3.616-1.183,5.835,5.835,0,0,1-2.31-1.845,4.792,4.792,0,0,1-.855-2.906,4.994,4.994,0,0,1,.9-2.939,5.694,5.694,0,0,1,2.612-1.976,10.7,10.7,0,0,1,4.019-.69,9.955,9.955,0,0,1,3.193.458,6.75,6.75,0,0,1,2.235,1.217,5.1,5.1,0,0,1,1.3,1.592,3.684,3.684,0,0,1,.41,1.627,1.921,1.921,0,0,1-.513,1.306,1.632,1.632,0,0,1-1.278.581,1.469,1.469,0,0,1-1.06-.349,4.7,4.7,0,0,1-.786-1.141,5.172,5.172,0,0,0-1.312-1.771,3.839,3.839,0,0,0-2.461-.635,4.262,4.262,0,0,0-2.536.69,2.007,2.007,0,0,0-.964,1.661,1.678,1.678,0,0,0,.328,1.039,2.75,2.75,0,0,0,.9.752,6.031,6.031,0,0,0,1.162.492q.588.178,1.942.52a30.652,30.652,0,0,1,3.069.875,9.325,9.325,0,0,1,2.338,1.162,4.779,4.779,0,0,1,1.5,1.729A5.543,5.543,0,0,1,25.5,45.127Z"/><path class="cls-1" d="M31.461,31.1h5.291a14.326,14.326,0,0,1,3.541.382,6.521,6.521,0,0,1,2.68,1.436Q46.1,35.6,46.1,41.066a15.953,15.953,0,0,1-.315,3.295,9.715,9.715,0,0,1-.971,2.687,8.343,8.343,0,0,1-1.681,2.14,6.946,6.946,0,0,1-1.764,1.162,7.965,7.965,0,0,1-2.058.615,15.6,15.6,0,0,1-2.481.178H31.543a3.317,3.317,0,0,1-1.668-.335,1.549,1.549,0,0,1-.731-.944,5.942,5.942,0,0,1-.171-1.579v-14.7a2.6,2.6,0,0,1,.588-1.9A2.6,2.6,0,0,1,31.461,31.1Zm1.572,3.212v13.6h3.076q1.012,0,1.586-.055a4.925,4.925,0,0,0,1.19-.273,3.25,3.25,0,0,0,1.066-.615q2.039-1.724,2.037-5.934a8.751,8.751,0,0,0-.895-4.443,3.985,3.985,0,0,0-2.208-1.88,10.89,10.89,0,0,0-3.172-.4Z"/><path class="cls-1" d="M53.076,49.01V42.652l-4.894-7.588a15.789,15.789,0,0,1-.91-1.6,2.449,2.449,0,0,1-.266-1,1.593,1.593,0,0,1,.54-1.2,1.878,1.878,0,0,1,1.333-.506,1.63,1.63,0,0,1,1.265.471,14.3,14.3,0,0,1,1.292,1.88l3.746,6.084,3.787-6.084.574-.943a5.9,5.9,0,0,1,.513-.718,2.026,2.026,0,0,1,.622-.512,1.782,1.782,0,0,1,.834-.178,1.759,1.759,0,0,1,1.278.5,1.566,1.566,0,0,1,.513,1.155,2.422,2.422,0,0,1-.26,1.067,13.928,13.928,0,0,1-.889,1.476l-5.017,7.7V49.01a2.638,2.638,0,0,1-.575,1.859,2.055,2.055,0,0,1-2.925.007A2.676,2.676,0,0,1,53.076,49.01Z"/></svg>